# Wavefront OBJ file made by Mineways version 12.10, http://mineways.com
# World: Test Superflat
# Terrain file name: C:\Programs\mineways\terrainExt.png
# Color scheme: Standard
# Thu Feb 26 22:45:06 2026

# Selection location min to max: 22, 0, -31 to 25, 0, -30
#   Non-empty selection location min to max: 22, 0, -31 to 25, 0, -30

# Set render type: Wavefront OBJ absolute indices
# Units for the model vertex data itself: meters

# 8 vertices, 6 faces (12 triangles), 8 blocks, 0 billboards/bits. Simplification saved 22 faces.
# block dimensions: X=4 by Y=1 (height) by Z=2 blocks
# Elevation shading: no
# Lighting: no
# Transparent water: no
# Map grid: no
# File type: Export individual textures to directory tex
# Texture output RGB: YES
# Texture output A: YES
# Texture output RGBA: YES
# Export separate types: YES
# Export individual blocks: no
#   Material per family: YES
#   Split by block type: YES
# Make groups objects: no
# Custom material: YES
# Export lesser blocks: YES
# Fatten lesser blocks: no
# Simplify mesh: YES
# Double all billboard faces: no
# Create composite overlay faces: no
# Center model: YES
# Use biomes: no
# Create block faces at the borders: YES
# Tree leaves solid: YES
# Rotate model 0.000000 degrees
# Make Z the up direction instead of Y: no
# Scale model by making each block 1000 mm high
# Data operation options:
#   Fill air bubbles: no; Seal off entrances: no; Fill in isolated tunnels in base of model: no
#   Connect parts sharing an edge: no; Connect corner tips: no; Weld all shared edges: no
#   Delete floating objects: trees and parts smaller than 16 blocks: no
#   Hollow out bottom of model, making the walls 1000 mm thick: no; Superhollow: no
# Melt snow blocks: no
#   Debug: show separate parts as colors: no
#   Debug: show weld blocks in bright colors: no

# Full world path: D:\Games\PrismLauncher\instances\1.21.10\minecraft\saves\Test Superflat
# Full terrainExt.png path: C:\Programs\mineways\terrainExt.png
# Full current path: C:\Programs\mineways

# COMMON_MC_OBJ_START
# version: 1
# exporter: mineways
# world_name: Test Superflat
# world_path: D:\Games\PrismLauncher\instances\1.21.10\minecraft\saves\Test Superflat
# export_bounds_min: (22, 0, -31)
# export_bounds_max: (25, 0, -30)
# export_offset: (-24.000000, 0.000000, 30.000000)
# block_scale: 1
# block_origin_offset: (0.000000, 0.000000, 0.000000)
# z_up: false
# texture_type: INDIVIDUAL_TILES
# has_split_blocks: true
# COMMON_MC_OBJ_END

mtllib platform.mtl

o Test_Superflat__22_0_-31_to_25_0_-30
vn -1 0 0
vn 0 -1 0
vn 0 0 -1
vn 1 0 0
vn 0 1 0
vn 0 0 1
vn -0.707107 0 -0.707107
vn -0.707107 0 0.707107
vn 0.707107 0 -0.707107
vn 0.707107 0 0.707107
vn -0.707107 -0.707107 0
vn 0 -0.707107 -0.707107
vn 0.707107 -0.707107 0
vn 0 -0.707107 0.707107
vn -0.707107 0.707107 0
vn 0 0.707107 -0.707107
vn 0.707107 0.707107 0
vn 0 0.707107 0.707107
vn -0.92388 0 -0.382683
vn -0.92388 0 0.382683
vn 0.92388 0 -0.382683
vn 0.92388 0 0.382683
vn -0.382683 0 -0.92388
vn -0.382683 0 0.92388
vn 0.382683 0 -0.92388
vn 0.382683 0 0.92388
vn -0.397273 0.9177 0
vn 0.397273 -0.9177 0
vn 0.397273 0.9177 0
vn -0.397273 -0.9177 0
vn 0 0.9177 -0.397273
vn 0 -0.9177 0.397273
vn 0 0.9177 0.397273
vn 0 -0.9177 -0.397273
vn -0.440932 0.897541 0
vn 0.440932 -0.897541 0
vn 0.440932 0.897541 0
vn -0.440932 -0.897541 0
vn 0 0.897541 -0.440932
vn 0 -0.897541 0.440932
vn 0 0.897541 0.440932
vn 0 -0.897541 -0.440932
vt 0.000000000 0.000000000
vt 1.000000000 0.000000000
vt 0.000000000 1.000000000
vt 1.000000000 1.000000000
vt 2.000000000 0.000000000
vt 4.000000000 0.000000000
vt 2.000000000 1.000000000
vt 4.000000000 1.000000000
vt 0.000000000 2.000000000
vt 4.000000000 2.000000000
v -2 0 -1
v -2 1 -1
v -2 0 1
v -2 1 1
v 2 0 -1
v 2 1 -1
v 2 0 1
v 2 1 1

g Oak_Planks
usemtl oak_planks
f 3/5/1 4/7/1 2/3/1 1/1/1
f 5/6/2 7/10/2 3/9/2 1/1/2
f 1/6/3 2/8/3 6/3/3 5/1/3
f 4/1/5 8/6/5 6/10/5 2/9/5
f 3/1/6 7/6/6 8/8/6 4/3/6
f 7/1/4 5/5/4 6/7/4 8/3/4
