# Wavefront OBJ file made by Mineways version 12.10, http://mineways.com
# World: Test Superflat
# Terrain file name: C:\Programs\mineways\terrainExt.png
# Color scheme: Standard
# Thu Feb 26 19:54:55 2026

# Selection location min to max: 22, -60, -26 to 25, 0, 128
#   Non-empty selection location min to max: 22, -60, -26 to 25, 0, 128

# Set render type: Wavefront OBJ absolute indices
# Units for the model vertex data itself: meters

# 1026 vertices, 995 faces (1990 triangles), 1802 blocks, 0 billboards/bits. Simplification saved 1519 faces.
# block dimensions: X=6 by Y=62 (height) by Z=157 blocks
# Elevation shading: no
# Lighting: no
# Transparent water: no
# Map grid: no
# File type: Export individual textures to directory tex
# Texture output RGB: YES
# Texture output A: YES
# Texture output RGBA: YES
# Export separate types: YES
# Export individual blocks: no
#   Material per family: YES
#   Split by block type: YES
# Make groups objects: no
# Custom material: YES
# Export lesser blocks: YES
# Fatten lesser blocks: no
# Simplify mesh: YES
# Double all billboard faces: no
# Create composite overlay faces: no
# Center model: YES
# Use biomes: no
# Create block faces at the borders: no
# Tree leaves solid: YES
# Rotate model 0.000000 degrees
# Make Z the up direction instead of Y: no
# Scale model by making each block 1000 mm high
# Data operation options:
#   Fill air bubbles: no; Seal off entrances: no; Fill in isolated tunnels in base of model: no
#   Connect parts sharing an edge: no; Connect corner tips: no; Weld all shared edges: no
#   Delete floating objects: trees and parts smaller than 16 blocks: no
#   Hollow out bottom of model, making the walls 1000 mm thick: no; Superhollow: no
# Melt snow blocks: no
#   Debug: show separate parts as colors: no
#   Debug: show weld blocks in bright colors: no

# Full world path: D:\Games\PrismLauncher\instances\1.21.10\minecraft\saves\Test Superflat
# Full terrainExt.png path: C:\Programs\mineways\terrainExt.png
# Full current path: C:\Programs\mineways

# COMMON_MC_OBJ_START
# version: 1
# exporter: mineways
# world_name: Test Superflat
# world_path: D:\Games\PrismLauncher\instances\1.21.10\minecraft\saves\Test Superflat
# export_bounds_min: (22, -60, -26)
# export_bounds_max: (25, 0, 128)
# export_offset: (-24.000000, 60.000000, -51.000000)
# block_scale: 1
# block_origin_offset: (0.000000, 0.000000, 0.000000)
# z_up: false
# texture_type: INDIVIDUAL_TILES
# has_split_blocks: true
# COMMON_MC_OBJ_END

mtllib runway.mtl

o Test_Superflat__22_-60_-26_to_25_0_128
vn -1 0 0
vn 0 -1 0
vn 0 0 -1
vn 1 0 0
vn 0 1 0
vn 0 0 1
vn -0.707107 0 -0.707107
vn -0.707107 0 0.707107
vn 0.707107 0 -0.707107
vn 0.707107 0 0.707107
vn -0.707107 -0.707107 0
vn 0 -0.707107 -0.707107
vn 0.707107 -0.707107 0
vn 0 -0.707107 0.707107
vn -0.707107 0.707107 0
vn 0 0.707107 -0.707107
vn 0.707107 0.707107 0
vn 0 0.707107 0.707107
vn -0.92388 0 -0.382683
vn -0.92388 0 0.382683
vn 0.92388 0 -0.382683
vn 0.92388 0 0.382683
vn -0.382683 0 -0.92388
vn -0.382683 0 0.92388
vn 0.382683 0 -0.92388
vn 0.382683 0 0.92388
vn -0.397273 0.9177 0
vn 0.397273 -0.9177 0
vn 0.397273 0.9177 0
vn -0.397273 -0.9177 0
vn 0 0.9177 -0.397273
vn 0 -0.9177 0.397273
vn 0 0.9177 0.397273
vn 0 -0.9177 -0.397273
vn -0.440932 0.897541 0
vn 0.440932 -0.897541 0
vn 0.440932 0.897541 0
vn -0.440932 -0.897541 0
vn 0 0.897541 -0.440932
vn 0 -0.897541 0.440932
vn 0 0.897541 0.440932
vn 0 -0.897541 -0.440932
vt 0.000000000 0.000000000
vt 1.000000000 0.000000000
vt 0.000000000 1.000000000
vt 1.000000000 1.000000000
vt 2.000000000 0.000000000
vt 4.000000000 0.000000000
vt 27.000000000 0.000000000
vt 32.000000000 0.000000000
vt 4.000000000 1.000000000
vt 27.000000000 1.000000000
vt 32.000000000 1.000000000
vt 0.000000000 10.000000000
vt 1.000000000 10.000000000
vt 0.000000000 14.000000000
vt 1.000000000 14.000000000
vt 0.000000000 26.000000000
vt 2.000000000 26.000000000
vt 0.000000000 27.000000000
vt 4.000000000 27.000000000
vt 0.000000000 32.000000000
vt 1.000000000 32.000000000
vt 2.000000000 32.000000000
vt 4.000000000 32.000000000
v -2 60 -77
v -2 60 -76
v -2 61 -77
v -1 60 -76
v -2 0 -76
v -2 0 -75
v -2 1 -75
v -2 1 -76
v -1 0 -76
v -1 1 -76
v -1 0 -75
v -1 1 -75
v -2 2 -75
v -2 2 -76
v -1 2 -76
v -1 2 -75
v -2 3 -75
v -2 3 -76
v -1 3 -76
v -1 3 -75
v -2 4 -75
v -2 4 -76
v -1 4 -76
v -1 4 -75
v -2 5 -75
v -2 5 -76
v -1 5 -76
v -1 5 -75
v -2 6 -75
v -2 6 -76
v -1 6 -76
v -1 6 -75
v -2 7 -75
v -2 7 -76
v -1 7 -76
v -1 7 -75
v -2 8 -75
v -2 8 -76
v -1 8 -76
v -1 8 -75
v -2 9 -75
v -2 9 -76
v -1 9 -76
v -1 9 -75
v -2 10 -75
v -2 10 -76
v -1 10 -76
v -1 10 -75
v -2 11 -75
v -2 11 -76
v -1 11 -76
v -1 11 -75
v -2 12 -75
v -2 12 -76
v -1 12 -76
v -1 12 -75
v -2 13 -75
v -2 13 -76
v -1 13 -76
v -1 13 -75
v -2 14 -75
v -2 14 -76
v -1 14 -76
v -1 14 -75
v -2 15 -75
v -2 15 -76
v -1 15 -76
v -1 15 -75
v -2 16 -75
v -2 16 -76
v -1 16 -76
v -1 16 -75
v -2 17 -75
v -2 17 -76
v -1 17 -76
v -1 17 -75
v -2 18 -75
v -2 18 -76
v -1 18 -76
v -1 18 -75
v -2 19 -75
v -2 19 -76
v -1 19 -76
v -1 19 -75
v -2 20 -75
v -2 20 -76
v -1 20 -76
v -1 20 -75
v -2 21 -75
v -2 21 -76
v -1 21 -76
v -1 21 -75
v -2 22 -75
v -2 22 -76
v -1 22 -76
v -1 22 -75
v -2 23 -75
v -2 23 -76
v -1 23 -76
v -1 23 -75
v -2 24 -75
v -2 24 -76
v -1 24 -76
v -1 24 -75
v -2 25 -75
v -2 25 -76
v -1 25 -76
v -1 25 -75
v -2 26 -75
v -2 26 -76
v -1 26 -76
v -1 26 -75
v -2 27 -75
v -2 27 -76
v -1 27 -76
v -1 27 -75
v -2 28 -75
v -2 28 -76
v -1 28 -76
v -1 28 -75
v -2 29 -75
v -2 29 -76
v -1 29 -76
v -1 29 -75
v -2 30 -75
v -2 30 -76
v -1 30 -76
v -1 30 -75
v -2 31 -75
v -2 31 -76
v -1 31 -76
v -1 31 -75
v -2 32 -75
v -2 32 -76
v -1 32 -76
v -1 32 -75
v -2 33 -75
v -2 33 -76
v -1 33 -76
v -1 33 -75
v -2 34 -75
v -2 34 -76
v -1 34 -76
v -1 34 -75
v -2 35 -75
v -2 35 -76
v -1 35 -76
v -1 35 -75
v -2 36 -75
v -2 36 -76
v -1 36 -76
v -1 36 -75
v -2 37 -75
v -2 37 -76
v -1 37 -76
v -1 37 -75
v -2 38 -75
v -2 38 -76
v -1 38 -76
v -1 38 -75
v -2 39 -75
v -2 39 -76
v -1 39 -76
v -1 39 -75
v -2 40 -75
v -2 40 -76
v -1 40 -76
v -1 40 -75
v -2 41 -75
v -2 41 -76
v -1 41 -76
v -1 41 -75
v -2 42 -75
v -2 42 -76
v -1 42 -76
v -1 42 -75
v -2 43 -75
v -2 43 -76
v -1 43 -76
v -1 43 -75
v -2 44 -75
v -2 44 -76
v -1 44 -76
v -1 44 -75
v -2 45 -75
v -2 45 -76
v -1 45 -76
v -1 45 -75
v -2 46 -75
v -2 46 -76
v -1 46 -76
v -1 46 -75
v -2 47 -75
v -2 47 -76
v -1 47 -76
v -1 47 -75
v -2 48 -75
v -2 48 -76
v -1 48 -76
v -1 48 -75
v -2 49 -75
v -2 49 -76
v -1 49 -76
v -1 49 -75
v -2 50 -75
v -2 50 -76
v -1 50 -76
v -1 50 -75
v -2 51 -75
v -2 51 -76
v -1 51 -76
v -1 51 -75
v -2 52 -75
v -2 52 -76
v -1 52 -76
v -1 52 -75
v -2 53 -75
v -2 53 -76
v -1 53 -76
v -1 53 -75
v -2 54 -75
v -2 54 -76
v -1 54 -76
v -1 54 -75
v -2 55 -75
v -2 55 -76
v -1 55 -76
v -1 55 -75
v -2 56 -75
v -2 56 -76
v -1 56 -76
v -1 56 -75
v -2 57 -75
v -2 57 -76
v -1 57 -76
v -1 57 -75
v -2 58 -75
v -2 58 -76
v -1 58 -76
v -1 58 -75
v -2 59 -75
v -2 59 -76
v -1 59 -76
v -1 59 -75
v -2 60 -75
v -1 60 -75
v -2 60 -65
v -1 60 -65
v -2 0 -65
v -2 0 -64
v -2 1 -64
v -2 1 -65
v -1 0 -65
v -1 1 -65
v -1 0 -64
v -1 1 -64
v -2 2 -64
v -2 2 -65
v -1 2 -65
v -1 2 -64
v -2 3 -64
v -2 3 -65
v -1 3 -65
v -1 3 -64
v -2 4 -64
v -2 4 -65
v -1 4 -65
v -1 4 -64
v -2 5 -64
v -2 5 -65
v -1 5 -65
v -1 5 -64
v -2 6 -64
v -2 6 -65
v -1 6 -65
v -1 6 -64
v -2 7 -64
v -2 7 -65
v -1 7 -65
v -1 7 -64
v -2 8 -64
v -2 8 -65
v -1 8 -65
v -1 8 -64
v -2 9 -64
v -2 9 -65
v -1 9 -65
v -1 9 -64
v -2 10 -64
v -2 10 -65
v -1 10 -65
v -1 10 -64
v -2 11 -64
v -2 11 -65
v -1 11 -65
v -1 11 -64
v -2 12 -64
v -2 12 -65
v -1 12 -65
v -1 12 -64
v -2 13 -64
v -2 13 -65
v -1 13 -65
v -1 13 -64
v -2 14 -64
v -2 14 -65
v -1 14 -65
v -1 14 -64
v -2 15 -64
v -2 15 -65
v -1 15 -65
v -1 15 -64
v -2 16 -64
v -2 16 -65
v -1 16 -65
v -1 16 -64
v -2 17 -64
v -2 17 -65
v -1 17 -65
v -1 17 -64
v -2 18 -64
v -2 18 -65
v -1 18 -65
v -1 18 -64
v -2 19 -64
v -2 19 -65
v -1 19 -65
v -1 19 -64
v -2 20 -64
v -2 20 -65
v -1 20 -65
v -1 20 -64
v -2 21 -64
v -2 21 -65
v -1 21 -65
v -1 21 -64
v -2 22 -64
v -2 22 -65
v -1 22 -65
v -1 22 -64
v -2 23 -64
v -2 23 -65
v -1 23 -65
v -1 23 -64
v -2 24 -64
v -2 24 -65
v -1 24 -65
v -1 24 -64
v -2 25 -64
v -2 25 -65
v -1 25 -65
v -1 25 -64
v -2 26 -64
v -2 26 -65
v -1 26 -65
v -1 26 -64
v -2 27 -64
v -2 27 -65
v -1 27 -65
v -1 27 -64
v -2 28 -64
v -2 28 -65
v -1 28 -65
v -1 28 -64
v -2 29 -64
v -2 29 -65
v -1 29 -65
v -1 29 -64
v -2 30 -64
v -2 30 -65
v -1 30 -65
v -1 30 -64
v -2 31 -64
v -2 31 -65
v -1 31 -65
v -1 31 -64
v -2 32 -64
v -2 32 -65
v -1 32 -65
v -1 32 -64
v -2 33 -64
v -2 33 -65
v -1 33 -65
v -1 33 -64
v -2 34 -64
v -2 34 -65
v -1 34 -65
v -1 34 -64
v -2 35 -64
v -2 35 -65
v -1 35 -65
v -1 35 -64
v -2 36 -64
v -2 36 -65
v -1 36 -65
v -1 36 -64
v -2 37 -64
v -2 37 -65
v -1 37 -65
v -1 37 -64
v -2 38 -64
v -2 38 -65
v -1 38 -65
v -1 38 -64
v -2 39 -64
v -2 39 -65
v -1 39 -65
v -1 39 -64
v -2 40 -64
v -2 40 -65
v -1 40 -65
v -1 40 -64
v -2 41 -64
v -2 41 -65
v -1 41 -65
v -1 41 -64
v -2 42 -64
v -2 42 -65
v -1 42 -65
v -1 42 -64
v -2 43 -64
v -2 43 -65
v -1 43 -65
v -1 43 -64
v -2 44 -64
v -2 44 -65
v -1 44 -65
v -1 44 -64
v -2 45 -64
v -2 45 -65
v -1 45 -65
v -1 45 -64
v -2 46 -64
v -2 46 -65
v -1 46 -65
v -1 46 -64
v -2 47 -64
v -2 47 -65
v -1 47 -65
v -1 47 -64
v -2 48 -64
v -2 48 -65
v -1 48 -65
v -1 48 -64
v -2 49 -64
v -2 49 -65
v -1 49 -65
v -1 49 -64
v -2 50 -64
v -2 50 -65
v -1 50 -65
v -1 50 -64
v -2 51 -64
v -2 51 -65
v -1 51 -65
v -1 51 -64
v -2 52 -64
v -2 52 -65
v -1 52 -65
v -1 52 -64
v -2 53 -64
v -2 53 -65
v -1 53 -65
v -1 53 -64
v -2 54 -64
v -2 54 -65
v -1 54 -65
v -1 54 -64
v -2 55 -64
v -2 55 -65
v -1 55 -65
v -1 55 -64
v -2 56 -64
v -2 56 -65
v -1 56 -65
v -1 56 -64
v -2 57 -64
v -2 57 -65
v -1 57 -65
v -1 57 -64
v -2 58 -64
v -2 58 -65
v -1 58 -65
v -1 58 -64
v -2 59 -64
v -2 59 -65
v -1 59 -65
v -1 59 -64
v -2 60 -64
v -1 60 -64
v -2 60 -45
v -2 61 -45
v -1 60 -44
v -2 60 -32
v -1 60 -32
v -2 60 -13
v -2 61 -13
v -1 60 -12
v -2 60 0
v -1 60 0
v -2 60 19
v -2 61 19
v -1 60 20
v -2 60 32
v -1 60 32
v -2 60 51
v -2 61 51
v -1 60 52
v -2 60 64
v -1 60 64
v -2 60 78
v -2 61 78
v -1 60 78
v 1 60 -76
v 1 60 -75
v 1 60 -65
v 1 60 -64
v 1 60 -44
v 1 60 -32
v 1 60 -12
v 1 60 0
v 1 60 20
v 1 60 32
v 1 60 52
v 1 60 64
v 1 60 78
v 2 60 -76
v 2 60 -77
v 2 61 -77
v 1 0 -76
v 1 0 -75
v 1 1 -75
v 1 1 -76
v 2 0 -76
v 2 1 -76
v 2 0 -75
v 2 1 -75
v 1 2 -75
v 1 2 -76
v 2 2 -76
v 2 2 -75
v 1 3 -75
v 1 3 -76
v 2 3 -76
v 2 3 -75
v 1 4 -75
v 1 4 -76
v 2 4 -76
v 2 4 -75
v 1 5 -75
v 1 5 -76
v 2 5 -76
v 2 5 -75
v 1 6 -75
v 1 6 -76
v 2 6 -76
v 2 6 -75
v 1 7 -75
v 1 7 -76
v 2 7 -76
v 2 7 -75
v 1 8 -75
v 1 8 -76
v 2 8 -76
v 2 8 -75
v 1 9 -75
v 1 9 -76
v 2 9 -76
v 2 9 -75
v 1 10 -75
v 1 10 -76
v 2 10 -76
v 2 10 -75
v 1 11 -75
v 1 11 -76
v 2 11 -76
v 2 11 -75
v 1 12 -75
v 1 12 -76
v 2 12 -76
v 2 12 -75
v 1 13 -75
v 1 13 -76
v 2 13 -76
v 2 13 -75
v 1 14 -75
v 1 14 -76
v 2 14 -76
v 2 14 -75
v 1 15 -75
v 1 15 -76
v 2 15 -76
v 2 15 -75
v 1 16 -75
v 1 16 -76
v 2 16 -76
v 2 16 -75
v 1 17 -75
v 1 17 -76
v 2 17 -76
v 2 17 -75
v 1 18 -75
v 1 18 -76
v 2 18 -76
v 2 18 -75
v 1 19 -75
v 1 19 -76
v 2 19 -76
v 2 19 -75
v 1 20 -75
v 1 20 -76
v 2 20 -76
v 2 20 -75
v 1 21 -75
v 1 21 -76
v 2 21 -76
v 2 21 -75
v 1 22 -75
v 1 22 -76
v 2 22 -76
v 2 22 -75
v 1 23 -75
v 1 23 -76
v 2 23 -76
v 2 23 -75
v 1 24 -75
v 1 24 -76
v 2 24 -76
v 2 24 -75
v 1 25 -75
v 1 25 -76
v 2 25 -76
v 2 25 -75
v 1 26 -75
v 1 26 -76
v 2 26 -76
v 2 26 -75
v 1 27 -75
v 1 27 -76
v 2 27 -76
v 2 27 -75
v 1 28 -75
v 1 28 -76
v 2 28 -76
v 2 28 -75
v 1 29 -75
v 1 29 -76
v 2 29 -76
v 2 29 -75
v 1 30 -75
v 1 30 -76
v 2 30 -76
v 2 30 -75
v 1 31 -75
v 1 31 -76
v 2 31 -76
v 2 31 -75
v 1 32 -75
v 1 32 -76
v 2 32 -76
v 2 32 -75
v 1 33 -75
v 1 33 -76
v 2 33 -76
v 2 33 -75
v 1 34 -75
v 1 34 -76
v 2 34 -76
v 2 34 -75
v 1 35 -75
v 1 35 -76
v 2 35 -76
v 2 35 -75
v 1 36 -75
v 1 36 -76
v 2 36 -76
v 2 36 -75
v 1 37 -75
v 1 37 -76
v 2 37 -76
v 2 37 -75
v 1 38 -75
v 1 38 -76
v 2 38 -76
v 2 38 -75
v 1 39 -75
v 1 39 -76
v 2 39 -76
v 2 39 -75
v 1 40 -75
v 1 40 -76
v 2 40 -76
v 2 40 -75
v 1 41 -75
v 1 41 -76
v 2 41 -76
v 2 41 -75
v 1 42 -75
v 1 42 -76
v 2 42 -76
v 2 42 -75
v 1 43 -75
v 1 43 -76
v 2 43 -76
v 2 43 -75
v 1 44 -75
v 1 44 -76
v 2 44 -76
v 2 44 -75
v 1 45 -75
v 1 45 -76
v 2 45 -76
v 2 45 -75
v 1 46 -75
v 1 46 -76
v 2 46 -76
v 2 46 -75
v 1 47 -75
v 1 47 -76
v 2 47 -76
v 2 47 -75
v 1 48 -75
v 1 48 -76
v 2 48 -76
v 2 48 -75
v 1 49 -75
v 1 49 -76
v 2 49 -76
v 2 49 -75
v 1 50 -75
v 1 50 -76
v 2 50 -76
v 2 50 -75
v 1 51 -75
v 1 51 -76
v 2 51 -76
v 2 51 -75
v 1 52 -75
v 1 52 -76
v 2 52 -76
v 2 52 -75
v 1 53 -75
v 1 53 -76
v 2 53 -76
v 2 53 -75
v 1 54 -75
v 1 54 -76
v 2 54 -76
v 2 54 -75
v 1 55 -75
v 1 55 -76
v 2 55 -76
v 2 55 -75
v 1 56 -75
v 1 56 -76
v 2 56 -76
v 2 56 -75
v 1 57 -75
v 1 57 -76
v 2 57 -76
v 2 57 -75
v 1 58 -75
v 1 58 -76
v 2 58 -76
v 2 58 -75
v 1 59 -75
v 1 59 -76
v 2 59 -76
v 2 59 -75
v 2 60 -75
v 2 60 -65
v 1 0 -65
v 1 0 -64
v 1 1 -64
v 1 1 -65
v 2 0 -65
v 2 1 -65
v 2 0 -64
v 2 1 -64
v 1 2 -64
v 1 2 -65
v 2 2 -65
v 2 2 -64
v 1 3 -64
v 1 3 -65
v 2 3 -65
v 2 3 -64
v 1 4 -64
v 1 4 -65
v 2 4 -65
v 2 4 -64
v 1 5 -64
v 1 5 -65
v 2 5 -65
v 2 5 -64
v 1 6 -64
v 1 6 -65
v 2 6 -65
v 2 6 -64
v 1 7 -64
v 1 7 -65
v 2 7 -65
v 2 7 -64
v 1 8 -64
v 1 8 -65
v 2 8 -65
v 2 8 -64
v 1 9 -64
v 1 9 -65
v 2 9 -65
v 2 9 -64
v 1 10 -64
v 1 10 -65
v 2 10 -65
v 2 10 -64
v 1 11 -64
v 1 11 -65
v 2 11 -65
v 2 11 -64
v 1 12 -64
v 1 12 -65
v 2 12 -65
v 2 12 -64
v 1 13 -64
v 1 13 -65
v 2 13 -65
v 2 13 -64
v 1 14 -64
v 1 14 -65
v 2 14 -65
v 2 14 -64
v 1 15 -64
v 1 15 -65
v 2 15 -65
v 2 15 -64
v 1 16 -64
v 1 16 -65
v 2 16 -65
v 2 16 -64
v 1 17 -64
v 1 17 -65
v 2 17 -65
v 2 17 -64
v 1 18 -64
v 1 18 -65
v 2 18 -65
v 2 18 -64
v 1 19 -64
v 1 19 -65
v 2 19 -65
v 2 19 -64
v 1 20 -64
v 1 20 -65
v 2 20 -65
v 2 20 -64
v 1 21 -64
v 1 21 -65
v 2 21 -65
v 2 21 -64
v 1 22 -64
v 1 22 -65
v 2 22 -65
v 2 22 -64
v 1 23 -64
v 1 23 -65
v 2 23 -65
v 2 23 -64
v 1 24 -64
v 1 24 -65
v 2 24 -65
v 2 24 -64
v 1 25 -64
v 1 25 -65
v 2 25 -65
v 2 25 -64
v 1 26 -64
v 1 26 -65
v 2 26 -65
v 2 26 -64
v 1 27 -64
v 1 27 -65
v 2 27 -65
v 2 27 -64
v 1 28 -64
v 1 28 -65
v 2 28 -65
v 2 28 -64
v 1 29 -64
v 1 29 -65
v 2 29 -65
v 2 29 -64
v 1 30 -64
v 1 30 -65
v 2 30 -65
v 2 30 -64
v 1 31 -64
v 1 31 -65
v 2 31 -65
v 2 31 -64
v 1 32 -64
v 1 32 -65
v 2 32 -65
v 2 32 -64
v 1 33 -64
v 1 33 -65
v 2 33 -65
v 2 33 -64
v 1 34 -64
v 1 34 -65
v 2 34 -65
v 2 34 -64
v 1 35 -64
v 1 35 -65
v 2 35 -65
v 2 35 -64
v 1 36 -64
v 1 36 -65
v 2 36 -65
v 2 36 -64
v 1 37 -64
v 1 37 -65
v 2 37 -65
v 2 37 -64
v 1 38 -64
v 1 38 -65
v 2 38 -65
v 2 38 -64
v 1 39 -64
v 1 39 -65
v 2 39 -65
v 2 39 -64
v 1 40 -64
v 1 40 -65
v 2 40 -65
v 2 40 -64
v 1 41 -64
v 1 41 -65
v 2 41 -65
v 2 41 -64
v 1 42 -64
v 1 42 -65
v 2 42 -65
v 2 42 -64
v 1 43 -64
v 1 43 -65
v 2 43 -65
v 2 43 -64
v 1 44 -64
v 1 44 -65
v 2 44 -65
v 2 44 -64
v 1 45 -64
v 1 45 -65
v 2 45 -65
v 2 45 -64
v 1 46 -64
v 1 46 -65
v 2 46 -65
v 2 46 -64
v 1 47 -64
v 1 47 -65
v 2 47 -65
v 2 47 -64
v 1 48 -64
v 1 48 -65
v 2 48 -65
v 2 48 -64
v 1 49 -64
v 1 49 -65
v 2 49 -65
v 2 49 -64
v 1 50 -64
v 1 50 -65
v 2 50 -65
v 2 50 -64
v 1 51 -64
v 1 51 -65
v 2 51 -65
v 2 51 -64
v 1 52 -64
v 1 52 -65
v 2 52 -65
v 2 52 -64
v 1 53 -64
v 1 53 -65
v 2 53 -65
v 2 53 -64
v 1 54 -64
v 1 54 -65
v 2 54 -65
v 2 54 -64
v 1 55 -64
v 1 55 -65
v 2 55 -65
v 2 55 -64
v 1 56 -64
v 1 56 -65
v 2 56 -65
v 2 56 -64
v 1 57 -64
v 1 57 -65
v 2 57 -65
v 2 57 -64
v 1 58 -64
v 1 58 -65
v 2 58 -65
v 2 58 -64
v 1 59 -64
v 1 59 -65
v 2 59 -65
v 2 59 -64
v 2 60 -64
v 2 60 -45
v 2 61 -45
v 2 60 -32
v 2 60 -13
v 2 61 -13
v 2 60 0
v 2 60 19
v 2 61 19
v 2 60 32
v 2 60 51
v 2 61 51
v 2 60 64
v 2 60 78
v 2 61 78

g Oak_Planks
usemtl oak_planks
f 491/8/1 492/11/1 3/3/1 1/1/1
f 528/6/2 527/9/2 2/3/2 1/1/2
f 1/6/3 3/9/3 529/3/3 528/1/3
f 492/1/5 1014/6/5 529/23/5 3/20/5
f 246/2/2 248/13/2 247/12/2 245/1/2
f 490/2/2 495/21/2 494/20/2 489/1/2
f 496/8/1 497/11/1 492/3/1 491/1/1
f 497/1/5 1017/6/5 1014/23/5 492/20/5
f 495/2/2 500/21/2 499/20/2 494/1/2
f 501/8/1 502/11/1 497/3/1 496/1/1
f 502/1/5 1020/6/5 1017/23/5 497/20/5
f 500/2/2 505/21/2 504/20/2 499/1/2
f 506/8/1 507/11/1 502/3/1 501/1/1
f 507/1/5 1023/6/5 1020/23/5 502/20/5
f 505/2/2 510/21/2 509/20/2 504/1/2
f 511/7/1 512/10/1 507/3/1 506/1/1
f 512/1/5 1026/6/5 1023/19/5 507/18/5
f 510/2/2 513/15/2 511/14/2 509/1/2
f 511/1/6 1025/6/6 1026/9/6 512/3/6
f 514/5/2 518/22/2 493/20/2 4/1/2
f 518/5/2 520/22/2 498/20/2 493/1/2
f 520/5/2 522/22/2 503/20/2 498/1/2
f 522/5/2 524/22/2 508/20/2 503/1/2
f 524/5/2 526/17/2 513/16/2 508/1/2
f 1013/1/4 528/8/4 529/11/4 1014/3/4
f 770/2/2 771/13/2 516/12/2 515/1/2
f 1012/2/2 1015/21/2 519/20/2 517/1/2
f 1016/1/4 1013/8/4 1014/11/4 1017/3/4
f 1015/2/2 1018/21/2 521/20/2 519/1/2
f 1019/1/4 1016/8/4 1017/11/4 1020/3/4
f 1018/2/2 1021/21/2 523/20/2 521/1/2
f 1022/1/4 1019/8/4 1020/11/4 1023/3/4
f 1021/2/2 1024/21/2 525/20/2 523/1/2
f 1025/1/4 1022/7/4 1023/10/4 1026/3/4
f 1024/2/2 1025/15/2 526/14/2 525/1/2

g Oak_Log
usemtl oak_log
f 6/2/1 7/4/1 8/3/1 5/1/1
f 5/2/3 8/4/3 10/3/3 9/1/3
f 11/1/4 9/2/4 10/4/4 12/3/4
f 6/1/6 11/2/6 12/4/6 7/3/6
f 7/2/1 13/4/1 14/3/1 8/1/1
f 8/2/3 14/4/3 15/3/3 10/1/3
f 12/1/4 10/2/4 15/4/4 16/3/4
f 7/1/6 12/2/6 16/4/6 13/3/6
f 13/2/1 17/4/1 18/3/1 14/1/1
f 14/2/3 18/4/3 19/3/3 15/1/3
f 16/1/4 15/2/4 19/4/4 20/3/4
f 13/1/6 16/2/6 20/4/6 17/3/6
f 17/2/1 21/4/1 22/3/1 18/1/1
f 18/2/3 22/4/3 23/3/3 19/1/3
f 20/1/4 19/2/4 23/4/4 24/3/4
f 17/1/6 20/2/6 24/4/6 21/3/6
f 21/2/1 25/4/1 26/3/1 22/1/1
f 22/2/3 26/4/3 27/3/3 23/1/3
f 24/1/4 23/2/4 27/4/4 28/3/4
f 21/1/6 24/2/6 28/4/6 25/3/6
f 25/2/1 29/4/1 30/3/1 26/1/1
f 26/2/3 30/4/3 31/3/3 27/1/3
f 28/1/4 27/2/4 31/4/4 32/3/4
f 25/1/6 28/2/6 32/4/6 29/3/6
f 29/2/1 33/4/1 34/3/1 30/1/1
f 30/2/3 34/4/3 35/3/3 31/1/3
f 32/1/4 31/2/4 35/4/4 36/3/4
f 29/1/6 32/2/6 36/4/6 33/3/6
f 33/2/1 37/4/1 38/3/1 34/1/1
f 34/2/3 38/4/3 39/3/3 35/1/3
f 36/1/4 35/2/4 39/4/4 40/3/4
f 33/1/6 36/2/6 40/4/6 37/3/6
f 37/2/1 41/4/1 42/3/1 38/1/1
f 38/2/3 42/4/3 43/3/3 39/1/3
f 40/1/4 39/2/4 43/4/4 44/3/4
f 37/1/6 40/2/6 44/4/6 41/3/6
f 41/2/1 45/4/1 46/3/1 42/1/1
f 42/2/3 46/4/3 47/3/3 43/1/3
f 44/1/4 43/2/4 47/4/4 48/3/4
f 41/1/6 44/2/6 48/4/6 45/3/6
f 45/2/1 49/4/1 50/3/1 46/1/1
f 46/2/3 50/4/3 51/3/3 47/1/3
f 48/1/4 47/2/4 51/4/4 52/3/4
f 45/1/6 48/2/6 52/4/6 49/3/6
f 49/2/1 53/4/1 54/3/1 50/1/1
f 50/2/3 54/4/3 55/3/3 51/1/3
f 52/1/4 51/2/4 55/4/4 56/3/4
f 49/1/6 52/2/6 56/4/6 53/3/6
f 53/2/1 57/4/1 58/3/1 54/1/1
f 54/2/3 58/4/3 59/3/3 55/1/3
f 56/1/4 55/2/4 59/4/4 60/3/4
f 53/1/6 56/2/6 60/4/6 57/3/6
f 57/2/1 61/4/1 62/3/1 58/1/1
f 58/2/3 62/4/3 63/3/3 59/1/3
f 60/1/4 59/2/4 63/4/4 64/3/4
f 57/1/6 60/2/6 64/4/6 61/3/6
f 61/2/1 65/4/1 66/3/1 62/1/1
f 62/2/3 66/4/3 67/3/3 63/1/3
f 64/1/4 63/2/4 67/4/4 68/3/4
f 61/1/6 64/2/6 68/4/6 65/3/6
f 65/2/1 69/4/1 70/3/1 66/1/1
f 66/2/3 70/4/3 71/3/3 67/1/3
f 68/1/4 67/2/4 71/4/4 72/3/4
f 65/1/6 68/2/6 72/4/6 69/3/6
f 69/2/1 73/4/1 74/3/1 70/1/1
f 70/2/3 74/4/3 75/3/3 71/1/3
f 72/1/4 71/2/4 75/4/4 76/3/4
f 69/1/6 72/2/6 76/4/6 73/3/6
f 73/2/1 77/4/1 78/3/1 74/1/1
f 74/2/3 78/4/3 79/3/3 75/1/3
f 76/1/4 75/2/4 79/4/4 80/3/4
f 73/1/6 76/2/6 80/4/6 77/3/6
f 77/2/1 81/4/1 82/3/1 78/1/1
f 78/2/3 82/4/3 83/3/3 79/1/3
f 80/1/4 79/2/4 83/4/4 84/3/4
f 77/1/6 80/2/6 84/4/6 81/3/6
f 81/2/1 85/4/1 86/3/1 82/1/1
f 82/2/3 86/4/3 87/3/3 83/1/3
f 84/1/4 83/2/4 87/4/4 88/3/4
f 81/1/6 84/2/6 88/4/6 85/3/6
f 85/2/1 89/4/1 90/3/1 86/1/1
f 86/2/3 90/4/3 91/3/3 87/1/3
f 88/1/4 87/2/4 91/4/4 92/3/4
f 85/1/6 88/2/6 92/4/6 89/3/6
f 89/2/1 93/4/1 94/3/1 90/1/1
f 90/2/3 94/4/3 95/3/3 91/1/3
f 92/1/4 91/2/4 95/4/4 96/3/4
f 89/1/6 92/2/6 96/4/6 93/3/6
f 93/2/1 97/4/1 98/3/1 94/1/1
f 94/2/3 98/4/3 99/3/3 95/1/3
f 96/1/4 95/2/4 99/4/4 100/3/4
f 93/1/6 96/2/6 100/4/6 97/3/6
f 97/2/1 101/4/1 102/3/1 98/1/1
f 98/2/3 102/4/3 103/3/3 99/1/3
f 100/1/4 99/2/4 103/4/4 104/3/4
f 97/1/6 100/2/6 104/4/6 101/3/6
f 101/2/1 105/4/1 106/3/1 102/1/1
f 102/2/3 106/4/3 107/3/3 103/1/3
f 104/1/4 103/2/4 107/4/4 108/3/4
f 101/1/6 104/2/6 108/4/6 105/3/6
f 105/2/1 109/4/1 110/3/1 106/1/1
f 106/2/3 110/4/3 111/3/3 107/1/3
f 108/1/4 107/2/4 111/4/4 112/3/4
f 105/1/6 108/2/6 112/4/6 109/3/6
f 109/2/1 113/4/1 114/3/1 110/1/1
f 110/2/3 114/4/3 115/3/3 111/1/3
f 112/1/4 111/2/4 115/4/4 116/3/4
f 109/1/6 112/2/6 116/4/6 113/3/6
f 113/2/1 117/4/1 118/3/1 114/1/1
f 114/2/3 118/4/3 119/3/3 115/1/3
f 116/1/4 115/2/4 119/4/4 120/3/4
f 113/1/6 116/2/6 120/4/6 117/3/6
f 117/2/1 121/4/1 122/3/1 118/1/1
f 118/2/3 122/4/3 123/3/3 119/1/3
f 120/1/4 119/2/4 123/4/4 124/3/4
f 117/1/6 120/2/6 124/4/6 121/3/6
f 121/2/1 125/4/1 126/3/1 122/1/1
f 122/2/3 126/4/3 127/3/3 123/1/3
f 124/1/4 123/2/4 127/4/4 128/3/4
f 121/1/6 124/2/6 128/4/6 125/3/6
f 125/2/1 129/4/1 130/3/1 126/1/1
f 126/2/3 130/4/3 131/3/3 127/1/3
f 128/1/4 127/2/4 131/4/4 132/3/4
f 125/1/6 128/2/6 132/4/6 129/3/6
f 129/2/1 133/4/1 134/3/1 130/1/1
f 130/2/3 134/4/3 135/3/3 131/1/3
f 132/1/4 131/2/4 135/4/4 136/3/4
f 129/1/6 132/2/6 136/4/6 133/3/6
f 133/2/1 137/4/1 138/3/1 134/1/1
f 134/2/3 138/4/3 139/3/3 135/1/3
f 136/1/4 135/2/4 139/4/4 140/3/4
f 133/1/6 136/2/6 140/4/6 137/3/6
f 137/2/1 141/4/1 142/3/1 138/1/1
f 138/2/3 142/4/3 143/3/3 139/1/3
f 140/1/4 139/2/4 143/4/4 144/3/4
f 137/1/6 140/2/6 144/4/6 141/3/6
f 141/2/1 145/4/1 146/3/1 142/1/1
f 142/2/3 146/4/3 147/3/3 143/1/3
f 144/1/4 143/2/4 147/4/4 148/3/4
f 141/1/6 144/2/6 148/4/6 145/3/6
f 145/2/1 149/4/1 150/3/1 146/1/1
f 146/2/3 150/4/3 151/3/3 147/1/3
f 148/1/4 147/2/4 151/4/4 152/3/4
f 145/1/6 148/2/6 152/4/6 149/3/6
f 149/2/1 153/4/1 154/3/1 150/1/1
f 150/2/3 154/4/3 155/3/3 151/1/3
f 152/1/4 151/2/4 155/4/4 156/3/4
f 149/1/6 152/2/6 156/4/6 153/3/6
f 153/2/1 157/4/1 158/3/1 154/1/1
f 154/2/3 158/4/3 159/3/3 155/1/3
f 156/1/4 155/2/4 159/4/4 160/3/4
f 153/1/6 156/2/6 160/4/6 157/3/6
f 157/2/1 161/4/1 162/3/1 158/1/1
f 158/2/3 162/4/3 163/3/3 159/1/3
f 160/1/4 159/2/4 163/4/4 164/3/4
f 157/1/6 160/2/6 164/4/6 161/3/6
f 161/2/1 165/4/1 166/3/1 162/1/1
f 162/2/3 166/4/3 167/3/3 163/1/3
f 164/1/4 163/2/4 167/4/4 168/3/4
f 161/1/6 164/2/6 168/4/6 165/3/6
f 165/2/1 169/4/1 170/3/1 166/1/1
f 166/2/3 170/4/3 171/3/3 167/1/3
f 168/1/4 167/2/4 171/4/4 172/3/4
f 165/1/6 168/2/6 172/4/6 169/3/6
f 169/2/1 173/4/1 174/3/1 170/1/1
f 170/2/3 174/4/3 175/3/3 171/1/3
f 172/1/4 171/2/4 175/4/4 176/3/4
f 169/1/6 172/2/6 176/4/6 173/3/6
f 173/2/1 177/4/1 178/3/1 174/1/1
f 174/2/3 178/4/3 179/3/3 175/1/3
f 176/1/4 175/2/4 179/4/4 180/3/4
f 173/1/6 176/2/6 180/4/6 177/3/6
f 177/2/1 181/4/1 182/3/1 178/1/1
f 178/2/3 182/4/3 183/3/3 179/1/3
f 180/1/4 179/2/4 183/4/4 184/3/4
f 177/1/6 180/2/6 184/4/6 181/3/6
f 181/2/1 185/4/1 186/3/1 182/1/1
f 182/2/3 186/4/3 187/3/3 183/1/3
f 184/1/4 183/2/4 187/4/4 188/3/4
f 181/1/6 184/2/6 188/4/6 185/3/6
f 185/2/1 189/4/1 190/3/1 186/1/1
f 186/2/3 190/4/3 191/3/3 187/1/3
f 188/1/4 187/2/4 191/4/4 192/3/4
f 185/1/6 188/2/6 192/4/6 189/3/6
f 189/2/1 193/4/1 194/3/1 190/1/1
f 190/2/3 194/4/3 195/3/3 191/1/3
f 192/1/4 191/2/4 195/4/4 196/3/4
f 189/1/6 192/2/6 196/4/6 193/3/6
f 193/2/1 197/4/1 198/3/1 194/1/1
f 194/2/3 198/4/3 199/3/3 195/1/3
f 196/1/4 195/2/4 199/4/4 200/3/4
f 193/1/6 196/2/6 200/4/6 197/3/6
f 197/2/1 201/4/1 202/3/1 198/1/1
f 198/2/3 202/4/3 203/3/3 199/1/3
f 200/1/4 199/2/4 203/4/4 204/3/4
f 197/1/6 200/2/6 204/4/6 201/3/6
f 201/2/1 205/4/1 206/3/1 202/1/1
f 202/2/3 206/4/3 207/3/3 203/1/3
f 204/1/4 203/2/4 207/4/4 208/3/4
f 201/1/6 204/2/6 208/4/6 205/3/6
f 205/2/1 209/4/1 210/3/1 206/1/1
f 206/2/3 210/4/3 211/3/3 207/1/3
f 208/1/4 207/2/4 211/4/4 212/3/4
f 205/1/6 208/2/6 212/4/6 209/3/6
f 209/2/1 213/4/1 214/3/1 210/1/1
f 210/2/3 214/4/3 215/3/3 211/1/3
f 212/1/4 211/2/4 215/4/4 216/3/4
f 209/1/6 212/2/6 216/4/6 213/3/6
f 213/2/1 217/4/1 218/3/1 214/1/1
f 214/2/3 218/4/3 219/3/3 215/1/3
f 216/1/4 215/2/4 219/4/4 220/3/4
f 213/1/6 216/2/6 220/4/6 217/3/6
f 217/2/1 221/4/1 222/3/1 218/1/1
f 218/2/3 222/4/3 223/3/3 219/1/3
f 220/1/4 219/2/4 223/4/4 224/3/4
f 217/1/6 220/2/6 224/4/6 221/3/6
f 221/2/1 225/4/1 226/3/1 222/1/1
f 222/2/3 226/4/3 227/3/3 223/1/3
f 224/1/4 223/2/4 227/4/4 228/3/4
f 221/1/6 224/2/6 228/4/6 225/3/6
f 225/2/1 229/4/1 230/3/1 226/1/1
f 226/2/3 230/4/3 231/3/3 227/1/3
f 228/1/4 227/2/4 231/4/4 232/3/4
f 225/1/6 228/2/6 232/4/6 229/3/6
f 229/2/1 233/4/1 234/3/1 230/1/1
f 230/2/3 234/4/3 235/3/3 231/1/3
f 232/1/4 231/2/4 235/4/4 236/3/4
f 229/1/6 232/2/6 236/4/6 233/3/6
f 233/2/1 237/4/1 238/3/1 234/1/1
f 234/2/3 238/4/3 239/3/3 235/1/3
f 236/1/4 235/2/4 239/4/4 240/3/4
f 233/1/6 236/2/6 240/4/6 237/3/6
f 237/2/1 241/4/1 242/3/1 238/1/1
f 238/2/3 242/4/3 243/3/3 239/1/3
f 240/1/4 239/2/4 243/4/4 244/3/4
f 237/1/6 240/2/6 244/4/6 241/3/6
f 241/2/1 245/4/1 2/3/1 242/1/1
f 242/2/3 2/4/3 4/3/3 243/1/3
f 244/1/4 243/2/4 4/4/4 246/3/4
f 241/1/6 244/2/6 246/4/6 245/3/6
f 250/2/1 251/4/1 252/3/1 249/1/1
f 249/2/3 252/4/3 254/3/3 253/1/3
f 255/1/4 253/2/4 254/4/4 256/3/4
f 250/1/6 255/2/6 256/4/6 251/3/6
f 251/2/1 257/4/1 258/3/1 252/1/1
f 252/2/3 258/4/3 259/3/3 254/1/3
f 256/1/4 254/2/4 259/4/4 260/3/4
f 251/1/6 256/2/6 260/4/6 257/3/6
f 257/2/1 261/4/1 262/3/1 258/1/1
f 258/2/3 262/4/3 263/3/3 259/1/3
f 260/1/4 259/2/4 263/4/4 264/3/4
f 257/1/6 260/2/6 264/4/6 261/3/6
f 261/2/1 265/4/1 266/3/1 262/1/1
f 262/2/3 266/4/3 267/3/3 263/1/3
f 264/1/4 263/2/4 267/4/4 268/3/4
f 261/1/6 264/2/6 268/4/6 265/3/6
f 265/2/1 269/4/1 270/3/1 266/1/1
f 266/2/3 270/4/3 271/3/3 267/1/3
f 268/1/4 267/2/4 271/4/4 272/3/4
f 265/1/6 268/2/6 272/4/6 269/3/6
f 269/2/1 273/4/1 274/3/1 270/1/1
f 270/2/3 274/4/3 275/3/3 271/1/3
f 272/1/4 271/2/4 275/4/4 276/3/4
f 269/1/6 272/2/6 276/4/6 273/3/6
f 273/2/1 277/4/1 278/3/1 274/1/1
f 274/2/3 278/4/3 279/3/3 275/1/3
f 276/1/4 275/2/4 279/4/4 280/3/4
f 273/1/6 276/2/6 280/4/6 277/3/6
f 277/2/1 281/4/1 282/3/1 278/1/1
f 278/2/3 282/4/3 283/3/3 279/1/3
f 280/1/4 279/2/4 283/4/4 284/3/4
f 277/1/6 280/2/6 284/4/6 281/3/6
f 281/2/1 285/4/1 286/3/1 282/1/1
f 282/2/3 286/4/3 287/3/3 283/1/3
f 284/1/4 283/2/4 287/4/4 288/3/4
f 281/1/6 284/2/6 288/4/6 285/3/6
f 285/2/1 289/4/1 290/3/1 286/1/1
f 286/2/3 290/4/3 291/3/3 287/1/3
f 288/1/4 287/2/4 291/4/4 292/3/4
f 285/1/6 288/2/6 292/4/6 289/3/6
f 289/2/1 293/4/1 294/3/1 290/1/1
f 290/2/3 294/4/3 295/3/3 291/1/3
f 292/1/4 291/2/4 295/4/4 296/3/4
f 289/1/6 292/2/6 296/4/6 293/3/6
f 293/2/1 297/4/1 298/3/1 294/1/1
f 294/2/3 298/4/3 299/3/3 295/1/3
f 296/1/4 295/2/4 299/4/4 300/3/4
f 293/1/6 296/2/6 300/4/6 297/3/6
f 297/2/1 301/4/1 302/3/1 298/1/1
f 298/2/3 302/4/3 303/3/3 299/1/3
f 300/1/4 299/2/4 303/4/4 304/3/4
f 297/1/6 300/2/6 304/4/6 301/3/6
f 301/2/1 305/4/1 306/3/1 302/1/1
f 302/2/3 306/4/3 307/3/3 303/1/3
f 304/1/4 303/2/4 307/4/4 308/3/4
f 301/1/6 304/2/6 308/4/6 305/3/6
f 305/2/1 309/4/1 310/3/1 306/1/1
f 306/2/3 310/4/3 311/3/3 307/1/3
f 308/1/4 307/2/4 311/4/4 312/3/4
f 305/1/6 308/2/6 312/4/6 309/3/6
f 309/2/1 313/4/1 314/3/1 310/1/1
f 310/2/3 314/4/3 315/3/3 311/1/3
f 312/1/4 311/2/4 315/4/4 316/3/4
f 309/1/6 312/2/6 316/4/6 313/3/6
f 313/2/1 317/4/1 318/3/1 314/1/1
f 314/2/3 318/4/3 319/3/3 315/1/3
f 316/1/4 315/2/4 319/4/4 320/3/4
f 313/1/6 316/2/6 320/4/6 317/3/6
f 317/2/1 321/4/1 322/3/1 318/1/1
f 318/2/3 322/4/3 323/3/3 319/1/3
f 320/1/4 319/2/4 323/4/4 324/3/4
f 317/1/6 320/2/6 324/4/6 321/3/6
f 321/2/1 325/4/1 326/3/1 322/1/1
f 322/2/3 326/4/3 327/3/3 323/1/3
f 324/1/4 323/2/4 327/4/4 328/3/4
f 321/1/6 324/2/6 328/4/6 325/3/6
f 325/2/1 329/4/1 330/3/1 326/1/1
f 326/2/3 330/4/3 331/3/3 327/1/3
f 328/1/4 327/2/4 331/4/4 332/3/4
f 325/1/6 328/2/6 332/4/6 329/3/6
f 329/2/1 333/4/1 334/3/1 330/1/1
f 330/2/3 334/4/3 335/3/3 331/1/3
f 332/1/4 331/2/4 335/4/4 336/3/4
f 329/1/6 332/2/6 336/4/6 333/3/6
f 333/2/1 337/4/1 338/3/1 334/1/1
f 334/2/3 338/4/3 339/3/3 335/1/3
f 336/1/4 335/2/4 339/4/4 340/3/4
f 333/1/6 336/2/6 340/4/6 337/3/6
f 337/2/1 341/4/1 342/3/1 338/1/1
f 338/2/3 342/4/3 343/3/3 339/1/3
f 340/1/4 339/2/4 343/4/4 344/3/4
f 337/1/6 340/2/6 344/4/6 341/3/6
f 341/2/1 345/4/1 346/3/1 342/1/1
f 342/2/3 346/4/3 347/3/3 343/1/3
f 344/1/4 343/2/4 347/4/4 348/3/4
f 341/1/6 344/2/6 348/4/6 345/3/6
f 345/2/1 349/4/1 350/3/1 346/1/1
f 346/2/3 350/4/3 351/3/3 347/1/3
f 348/1/4 347/2/4 351/4/4 352/3/4
f 345/1/6 348/2/6 352/4/6 349/3/6
f 349/2/1 353/4/1 354/3/1 350/1/1
f 350/2/3 354/4/3 355/3/3 351/1/3
f 352/1/4 351/2/4 355/4/4 356/3/4
f 349/1/6 352/2/6 356/4/6 353/3/6
f 353/2/1 357/4/1 358/3/1 354/1/1
f 354/2/3 358/4/3 359/3/3 355/1/3
f 356/1/4 355/2/4 359/4/4 360/3/4
f 353/1/6 356/2/6 360/4/6 357/3/6
f 357/2/1 361/4/1 362/3/1 358/1/1
f 358/2/3 362/4/3 363/3/3 359/1/3
f 360/1/4 359/2/4 363/4/4 364/3/4
f 357/1/6 360/2/6 364/4/6 361/3/6
f 361/2/1 365/4/1 366/3/1 362/1/1
f 362/2/3 366/4/3 367/3/3 363/1/3
f 364/1/4 363/2/4 367/4/4 368/3/4
f 361/1/6 364/2/6 368/4/6 365/3/6
f 365/2/1 369/4/1 370/3/1 366/1/1
f 366/2/3 370/4/3 371/3/3 367/1/3
f 368/1/4 367/2/4 371/4/4 372/3/4
f 365/1/6 368/2/6 372/4/6 369/3/6
f 369/2/1 373/4/1 374/3/1 370/1/1
f 370/2/3 374/4/3 375/3/3 371/1/3
f 372/1/4 371/2/4 375/4/4 376/3/4
f 369/1/6 372/2/6 376/4/6 373/3/6
f 373/2/1 377/4/1 378/3/1 374/1/1
f 374/2/3 378/4/3 379/3/3 375/1/3
f 376/1/4 375/2/4 379/4/4 380/3/4
f 373/1/6 376/2/6 380/4/6 377/3/6
f 377/2/1 381/4/1 382/3/1 378/1/1
f 378/2/3 382/4/3 383/3/3 379/1/3
f 380/1/4 379/2/4 383/4/4 384/3/4
f 377/1/6 380/2/6 384/4/6 381/3/6
f 381/2/1 385/4/1 386/3/1 382/1/1
f 382/2/3 386/4/3 387/3/3 383/1/3
f 384/1/4 383/2/4 387/4/4 388/3/4
f 381/1/6 384/2/6 388/4/6 385/3/6
f 385/2/1 389/4/1 390/3/1 386/1/1
f 386/2/3 390/4/3 391/3/3 387/1/3
f 388/1/4 387/2/4 391/4/4 392/3/4
f 385/1/6 388/2/6 392/4/6 389/3/6
f 389/2/1 393/4/1 394/3/1 390/1/1
f 390/2/3 394/4/3 395/3/3 391/1/3
f 392/1/4 391/2/4 395/4/4 396/3/4
f 389/1/6 392/2/6 396/4/6 393/3/6
f 393/2/1 397/4/1 398/3/1 394/1/1
f 394/2/3 398/4/3 399/3/3 395/1/3
f 396/1/4 395/2/4 399/4/4 400/3/4
f 393/1/6 396/2/6 400/4/6 397/3/6
f 397/2/1 401/4/1 402/3/1 398/1/1
f 398/2/3 402/4/3 403/3/3 399/1/3
f 400/1/4 399/2/4 403/4/4 404/3/4
f 397/1/6 400/2/6 404/4/6 401/3/6
f 401/2/1 405/4/1 406/3/1 402/1/1
f 402/2/3 406/4/3 407/3/3 403/1/3
f 404/1/4 403/2/4 407/4/4 408/3/4
f 401/1/6 404/2/6 408/4/6 405/3/6
f 405/2/1 409/4/1 410/3/1 406/1/1
f 406/2/3 410/4/3 411/3/3 407/1/3
f 408/1/4 407/2/4 411/4/4 412/3/4
f 405/1/6 408/2/6 412/4/6 409/3/6
f 409/2/1 413/4/1 414/3/1 410/1/1
f 410/2/3 414/4/3 415/3/3 411/1/3
f 412/1/4 411/2/4 415/4/4 416/3/4
f 409/1/6 412/2/6 416/4/6 413/3/6
f 413/2/1 417/4/1 418/3/1 414/1/1
f 414/2/3 418/4/3 419/3/3 415/1/3
f 416/1/4 415/2/4 419/4/4 420/3/4
f 413/1/6 416/2/6 420/4/6 417/3/6
f 417/2/1 421/4/1 422/3/1 418/1/1
f 418/2/3 422/4/3 423/3/3 419/1/3
f 420/1/4 419/2/4 423/4/4 424/3/4
f 417/1/6 420/2/6 424/4/6 421/3/6
f 421/2/1 425/4/1 426/3/1 422/1/1
f 422/2/3 426/4/3 427/3/3 423/1/3
f 424/1/4 423/2/4 427/4/4 428/3/4
f 421/1/6 424/2/6 428/4/6 425/3/6
f 425/2/1 429/4/1 430/3/1 426/1/1
f 426/2/3 430/4/3 431/3/3 427/1/3
f 428/1/4 427/2/4 431/4/4 432/3/4
f 425/1/6 428/2/6 432/4/6 429/3/6
f 429/2/1 433/4/1 434/3/1 430/1/1
f 430/2/3 434/4/3 435/3/3 431/1/3
f 432/1/4 431/2/4 435/4/4 436/3/4
f 429/1/6 432/2/6 436/4/6 433/3/6
f 433/2/1 437/4/1 438/3/1 434/1/1
f 434/2/3 438/4/3 439/3/3 435/1/3
f 436/1/4 435/2/4 439/4/4 440/3/4
f 433/1/6 436/2/6 440/4/6 437/3/6
f 437/2/1 441/4/1 442/3/1 438/1/1
f 438/2/3 442/4/3 443/3/3 439/1/3
f 440/1/4 439/2/4 443/4/4 444/3/4
f 437/1/6 440/2/6 444/4/6 441/3/6
f 441/2/1 445/4/1 446/3/1 442/1/1
f 442/2/3 446/4/3 447/3/3 443/1/3
f 444/1/4 443/2/4 447/4/4 448/3/4
f 441/1/6 444/2/6 448/4/6 445/3/6
f 445/2/1 449/4/1 450/3/1 446/1/1
f 446/2/3 450/4/3 451/3/3 447/1/3
f 448/1/4 447/2/4 451/4/4 452/3/4
f 445/1/6 448/2/6 452/4/6 449/3/6
f 449/2/1 453/4/1 454/3/1 450/1/1
f 450/2/3 454/4/3 455/3/3 451/1/3
f 452/1/4 451/2/4 455/4/4 456/3/4
f 449/1/6 452/2/6 456/4/6 453/3/6
f 453/2/1 457/4/1 458/3/1 454/1/1
f 454/2/3 458/4/3 459/3/3 455/1/3
f 456/1/4 455/2/4 459/4/4 460/3/4
f 453/1/6 456/2/6 460/4/6 457/3/6
f 457/2/1 461/4/1 462/3/1 458/1/1
f 458/2/3 462/4/3 463/3/3 459/1/3
f 460/1/4 459/2/4 463/4/4 464/3/4
f 457/1/6 460/2/6 464/4/6 461/3/6
f 461/2/1 465/4/1 466/3/1 462/1/1
f 462/2/3 466/4/3 467/3/3 463/1/3
f 464/1/4 463/2/4 467/4/4 468/3/4
f 461/1/6 464/2/6 468/4/6 465/3/6
f 465/2/1 469/4/1 470/3/1 466/1/1
f 466/2/3 470/4/3 471/3/3 467/1/3
f 468/1/4 467/2/4 471/4/4 472/3/4
f 465/1/6 468/2/6 472/4/6 469/3/6
f 469/2/1 473/4/1 474/3/1 470/1/1
f 470/2/3 474/4/3 475/3/3 471/1/3
f 472/1/4 471/2/4 475/4/4 476/3/4
f 469/1/6 472/2/6 476/4/6 473/3/6
f 473/2/1 477/4/1 478/3/1 474/1/1
f 474/2/3 478/4/3 479/3/3 475/1/3
f 476/1/4 475/2/4 479/4/4 480/3/4
f 473/1/6 476/2/6 480/4/6 477/3/6
f 477/2/1 481/4/1 482/3/1 478/1/1
f 478/2/3 482/4/3 483/3/3 479/1/3
f 480/1/4 479/2/4 483/4/4 484/3/4
f 477/1/6 480/2/6 484/4/6 481/3/6
f 481/2/1 485/4/1 486/3/1 482/1/1
f 482/2/3 486/4/3 487/3/3 483/1/3
f 484/1/4 483/2/4 487/4/4 488/3/4
f 481/1/6 484/2/6 488/4/6 485/3/6
f 485/2/1 489/4/1 247/3/1 486/1/1
f 486/2/3 247/4/3 248/3/3 487/1/3
f 488/1/4 487/2/4 248/4/4 490/3/4
f 485/1/6 488/2/6 490/4/6 489/3/6
f 531/2/1 532/4/1 533/3/1 530/1/1
f 530/2/3 533/4/3 535/3/3 534/1/3
f 536/1/4 534/2/4 535/4/4 537/3/4
f 531/1/6 536/2/6 537/4/6 532/3/6
f 532/2/1 538/4/1 539/3/1 533/1/1
f 533/2/3 539/4/3 540/3/3 535/1/3
f 537/1/4 535/2/4 540/4/4 541/3/4
f 532/1/6 537/2/6 541/4/6 538/3/6
f 538/2/1 542/4/1 543/3/1 539/1/1
f 539/2/3 543/4/3 544/3/3 540/1/3
f 541/1/4 540/2/4 544/4/4 545/3/4
f 538/1/6 541/2/6 545/4/6 542/3/6
f 542/2/1 546/4/1 547/3/1 543/1/1
f 543/2/3 547/4/3 548/3/3 544/1/3
f 545/1/4 544/2/4 548/4/4 549/3/4
f 542/1/6 545/2/6 549/4/6 546/3/6
f 546/2/1 550/4/1 551/3/1 547/1/1
f 547/2/3 551/4/3 552/3/3 548/1/3
f 549/1/4 548/2/4 552/4/4 553/3/4
f 546/1/6 549/2/6 553/4/6 550/3/6
f 550/2/1 554/4/1 555/3/1 551/1/1
f 551/2/3 555/4/3 556/3/3 552/1/3
f 553/1/4 552/2/4 556/4/4 557/3/4
f 550/1/6 553/2/6 557/4/6 554/3/6
f 554/2/1 558/4/1 559/3/1 555/1/1
f 555/2/3 559/4/3 560/3/3 556/1/3
f 557/1/4 556/2/4 560/4/4 561/3/4
f 554/1/6 557/2/6 561/4/6 558/3/6
f 558/2/1 562/4/1 563/3/1 559/1/1
f 559/2/3 563/4/3 564/3/3 560/1/3
f 561/1/4 560/2/4 564/4/4 565/3/4
f 558/1/6 561/2/6 565/4/6 562/3/6
f 562/2/1 566/4/1 567/3/1 563/1/1
f 563/2/3 567/4/3 568/3/3 564/1/3
f 565/1/4 564/2/4 568/4/4 569/3/4
f 562/1/6 565/2/6 569/4/6 566/3/6
f 566/2/1 570/4/1 571/3/1 567/1/1
f 567/2/3 571/4/3 572/3/3 568/1/3
f 569/1/4 568/2/4 572/4/4 573/3/4
f 566/1/6 569/2/6 573/4/6 570/3/6
f 570/2/1 574/4/1 575/3/1 571/1/1
f 571/2/3 575/4/3 576/3/3 572/1/3
f 573/1/4 572/2/4 576/4/4 577/3/4
f 570/1/6 573/2/6 577/4/6 574/3/6
f 574/2/1 578/4/1 579/3/1 575/1/1
f 575/2/3 579/4/3 580/3/3 576/1/3
f 577/1/4 576/2/4 580/4/4 581/3/4
f 574/1/6 577/2/6 581/4/6 578/3/6
f 578/2/1 582/4/1 583/3/1 579/1/1
f 579/2/3 583/4/3 584/3/3 580/1/3
f 581/1/4 580/2/4 584/4/4 585/3/4
f 578/1/6 581/2/6 585/4/6 582/3/6
f 582/2/1 586/4/1 587/3/1 583/1/1
f 583/2/3 587/4/3 588/3/3 584/1/3
f 585/1/4 584/2/4 588/4/4 589/3/4
f 582/1/6 585/2/6 589/4/6 586/3/6
f 586/2/1 590/4/1 591/3/1 587/1/1
f 587/2/3 591/4/3 592/3/3 588/1/3
f 589/1/4 588/2/4 592/4/4 593/3/4
f 586/1/6 589/2/6 593/4/6 590/3/6
f 590/2/1 594/4/1 595/3/1 591/1/1
f 591/2/3 595/4/3 596/3/3 592/1/3
f 593/1/4 592/2/4 596/4/4 597/3/4
f 590/1/6 593/2/6 597/4/6 594/3/6
f 594/2/1 598/4/1 599/3/1 595/1/1
f 595/2/3 599/4/3 600/3/3 596/1/3
f 597/1/4 596/2/4 600/4/4 601/3/4
f 594/1/6 597/2/6 601/4/6 598/3/6
f 598/2/1 602/4/1 603/3/1 599/1/1
f 599/2/3 603/4/3 604/3/3 600/1/3
f 601/1/4 600/2/4 604/4/4 605/3/4
f 598/1/6 601/2/6 605/4/6 602/3/6
f 602/2/1 606/4/1 607/3/1 603/1/1
f 603/2/3 607/4/3 608/3/3 604/1/3
f 605/1/4 604/2/4 608/4/4 609/3/4
f 602/1/6 605/2/6 609/4/6 606/3/6
f 606/2/1 610/4/1 611/3/1 607/1/1
f 607/2/3 611/4/3 612/3/3 608/1/3
f 609/1/4 608/2/4 612/4/4 613/3/4
f 606/1/6 609/2/6 613/4/6 610/3/6
f 610/2/1 614/4/1 615/3/1 611/1/1
f 611/2/3 615/4/3 616/3/3 612/1/3
f 613/1/4 612/2/4 616/4/4 617/3/4
f 610/1/6 613/2/6 617/4/6 614/3/6
f 614/2/1 618/4/1 619/3/1 615/1/1
f 615/2/3 619/4/3 620/3/3 616/1/3
f 617/1/4 616/2/4 620/4/4 621/3/4
f 614/1/6 617/2/6 621/4/6 618/3/6
f 618/2/1 622/4/1 623/3/1 619/1/1
f 619/2/3 623/4/3 624/3/3 620/1/3
f 621/1/4 620/2/4 624/4/4 625/3/4
f 618/1/6 621/2/6 625/4/6 622/3/6
f 622/2/1 626/4/1 627/3/1 623/1/1
f 623/2/3 627/4/3 628/3/3 624/1/3
f 625/1/4 624/2/4 628/4/4 629/3/4
f 622/1/6 625/2/6 629/4/6 626/3/6
f 626/2/1 630/4/1 631/3/1 627/1/1
f 627/2/3 631/4/3 632/3/3 628/1/3
f 629/1/4 628/2/4 632/4/4 633/3/4
f 626/1/6 629/2/6 633/4/6 630/3/6
f 630/2/1 634/4/1 635/3/1 631/1/1
f 631/2/3 635/4/3 636/3/3 632/1/3
f 633/1/4 632/2/4 636/4/4 637/3/4
f 630/1/6 633/2/6 637/4/6 634/3/6
f 634/2/1 638/4/1 639/3/1 635/1/1
f 635/2/3 639/4/3 640/3/3 636/1/3
f 637/1/4 636/2/4 640/4/4 641/3/4
f 634/1/6 637/2/6 641/4/6 638/3/6
f 638/2/1 642/4/1 643/3/1 639/1/1
f 639/2/3 643/4/3 644/3/3 640/1/3
f 641/1/4 640/2/4 644/4/4 645/3/4
f 638/1/6 641/2/6 645/4/6 642/3/6
f 642/2/1 646/4/1 647/3/1 643/1/1
f 643/2/3 647/4/3 648/3/3 644/1/3
f 645/1/4 644/2/4 648/4/4 649/3/4
f 642/1/6 645/2/6 649/4/6 646/3/6
f 646/2/1 650/4/1 651/3/1 647/1/1
f 647/2/3 651/4/3 652/3/3 648/1/3
f 649/1/4 648/2/4 652/4/4 653/3/4
f 646/1/6 649/2/6 653/4/6 650/3/6
f 650/2/1 654/4/1 655/3/1 651/1/1
f 651/2/3 655/4/3 656/3/3 652/1/3
f 653/1/4 652/2/4 656/4/4 657/3/4
f 650/1/6 653/2/6 657/4/6 654/3/6
f 654/2/1 658/4/1 659/3/1 655/1/1
f 655/2/3 659/4/3 660/3/3 656/1/3
f 657/1/4 656/2/4 660/4/4 661/3/4
f 654/1/6 657/2/6 661/4/6 658/3/6
f 658/2/1 662/4/1 663/3/1 659/1/1
f 659/2/3 663/4/3 664/3/3 660/1/3
f 661/1/4 660/2/4 664/4/4 665/3/4
f 658/1/6 661/2/6 665/4/6 662/3/6
f 662/2/1 666/4/1 667/3/1 663/1/1
f 663/2/3 667/4/3 668/3/3 664/1/3
f 665/1/4 664/2/4 668/4/4 669/3/4
f 662/1/6 665/2/6 669/4/6 666/3/6
f 666/2/1 670/4/1 671/3/1 667/1/1
f 667/2/3 671/4/3 672/3/3 668/1/3
f 669/1/4 668/2/4 672/4/4 673/3/4
f 666/1/6 669/2/6 673/4/6 670/3/6
f 670/2/1 674/4/1 675/3/1 671/1/1
f 671/2/3 675/4/3 676/3/3 672/1/3
f 673/1/4 672/2/4 676/4/4 677/3/4
f 670/1/6 673/2/6 677/4/6 674/3/6
f 674/2/1 678/4/1 679/3/1 675/1/1
f 675/2/3 679/4/3 680/3/3 676/1/3
f 677/1/4 676/2/4 680/4/4 681/3/4
f 674/1/6 677/2/6 681/4/6 678/3/6
f 678/2/1 682/4/1 683/3/1 679/1/1
f 679/2/3 683/4/3 684/3/3 680/1/3
f 681/1/4 680/2/4 684/4/4 685/3/4
f 678/1/6 681/2/6 685/4/6 682/3/6
f 682/2/1 686/4/1 687/3/1 683/1/1
f 683/2/3 687/4/3 688/3/3 684/1/3
f 685/1/4 684/2/4 688/4/4 689/3/4
f 682/1/6 685/2/6 689/4/6 686/3/6
f 686/2/1 690/4/1 691/3/1 687/1/1
f 687/2/3 691/4/3 692/3/3 688/1/3
f 689/1/4 688/2/4 692/4/4 693/3/4
f 686/1/6 689/2/6 693/4/6 690/3/6
f 690/2/1 694/4/1 695/3/1 691/1/1
f 691/2/3 695/4/3 696/3/3 692/1/3
f 693/1/4 692/2/4 696/4/4 697/3/4
f 690/1/6 693/2/6 697/4/6 694/3/6
f 694/2/1 698/4/1 699/3/1 695/1/1
f 695/2/3 699/4/3 700/3/3 696/1/3
f 697/1/4 696/2/4 700/4/4 701/3/4
f 694/1/6 697/2/6 701/4/6 698/3/6
f 698/2/1 702/4/1 703/3/1 699/1/1
f 699/2/3 703/4/3 704/3/3 700/1/3
f 701/1/4 700/2/4 704/4/4 705/3/4
f 698/1/6 701/2/6 705/4/6 702/3/6
f 702/2/1 706/4/1 707/3/1 703/1/1
f 703/2/3 707/4/3 708/3/3 704/1/3
f 705/1/4 704/2/4 708/4/4 709/3/4
f 702/1/6 705/2/6 709/4/6 706/3/6
f 706/2/1 710/4/1 711/3/1 707/1/1
f 707/2/3 711/4/3 712/3/3 708/1/3
f 709/1/4 708/2/4 712/4/4 713/3/4
f 706/1/6 709/2/6 713/4/6 710/3/6
f 710/2/1 714/4/1 715/3/1 711/1/1
f 711/2/3 715/4/3 716/3/3 712/1/3
f 713/1/4 712/2/4 716/4/4 717/3/4
f 710/1/6 713/2/6 717/4/6 714/3/6
f 714/2/1 718/4/1 719/3/1 715/1/1
f 715/2/3 719/4/3 720/3/3 716/1/3
f 717/1/4 716/2/4 720/4/4 721/3/4
f 714/1/6 717/2/6 721/4/6 718/3/6
f 718/2/1 722/4/1 723/3/1 719/1/1
f 719/2/3 723/4/3 724/3/3 720/1/3
f 721/1/4 720/2/4 724/4/4 725/3/4
f 718/1/6 721/2/6 725/4/6 722/3/6
f 722/2/1 726/4/1 727/3/1 723/1/1
f 723/2/3 727/4/3 728/3/3 724/1/3
f 725/1/4 724/2/4 728/4/4 729/3/4
f 722/1/6 725/2/6 729/4/6 726/3/6
f 726/2/1 730/4/1 731/3/1 727/1/1
f 727/2/3 731/4/3 732/3/3 728/1/3
f 729/1/4 728/2/4 732/4/4 733/3/4
f 726/1/6 729/2/6 733/4/6 730/3/6
f 730/2/1 734/4/1 735/3/1 731/1/1
f 731/2/3 735/4/3 736/3/3 732/1/3
f 733/1/4 732/2/4 736/4/4 737/3/4
f 730/1/6 733/2/6 737/4/6 734/3/6
f 734/2/1 738/4/1 739/3/1 735/1/1
f 735/2/3 739/4/3 740/3/3 736/1/3
f 737/1/4 736/2/4 740/4/4 741/3/4
f 734/1/6 737/2/6 741/4/6 738/3/6
f 738/2/1 742/4/1 743/3/1 739/1/1
f 739/2/3 743/4/3 744/3/3 740/1/3
f 741/1/4 740/2/4 744/4/4 745/3/4
f 738/1/6 741/2/6 745/4/6 742/3/6
f 742/2/1 746/4/1 747/3/1 743/1/1
f 743/2/3 747/4/3 748/3/3 744/1/3
f 745/1/4 744/2/4 748/4/4 749/3/4
f 742/1/6 745/2/6 749/4/6 746/3/6
f 746/2/1 750/4/1 751/3/1 747/1/1
f 747/2/3 751/4/3 752/3/3 748/1/3
f 749/1/4 748/2/4 752/4/4 753/3/4
f 746/1/6 749/2/6 753/4/6 750/3/6
f 750/2/1 754/4/1 755/3/1 751/1/1
f 751/2/3 755/4/3 756/3/3 752/1/3
f 753/1/4 752/2/4 756/4/4 757/3/4
f 750/1/6 753/2/6 757/4/6 754/3/6
f 754/2/1 758/4/1 759/3/1 755/1/1
f 755/2/3 759/4/3 760/3/3 756/1/3
f 757/1/4 756/2/4 760/4/4 761/3/4
f 754/1/6 757/2/6 761/4/6 758/3/6
f 758/2/1 762/4/1 763/3/1 759/1/1
f 759/2/3 763/4/3 764/3/3 760/1/3
f 761/1/4 760/2/4 764/4/4 765/3/4
f 758/1/6 761/2/6 765/4/6 762/3/6
f 762/2/1 766/4/1 767/3/1 763/1/1
f 763/2/3 767/4/3 768/3/3 764/1/3
f 765/1/4 764/2/4 768/4/4 769/3/4
f 762/1/6 765/2/6 769/4/6 766/3/6
f 766/2/1 515/4/1 514/3/1 767/1/1
f 767/2/3 514/4/3 527/3/3 768/1/3
f 769/1/4 768/2/4 527/4/4 770/3/4
f 766/1/6 769/2/6 770/4/6 515/3/6
f 773/2/1 774/4/1 775/3/1 772/1/1
f 772/2/3 775/4/3 777/3/3 776/1/3
f 778/1/4 776/2/4 777/4/4 779/3/4
f 773/1/6 778/2/6 779/4/6 774/3/6
f 774/2/1 780/4/1 781/3/1 775/1/1
f 775/2/3 781/4/3 782/3/3 777/1/3
f 779/1/4 777/2/4 782/4/4 783/3/4
f 774/1/6 779/2/6 783/4/6 780/3/6
f 780/2/1 784/4/1 785/3/1 781/1/1
f 781/2/3 785/4/3 786/3/3 782/1/3
f 783/1/4 782/2/4 786/4/4 787/3/4
f 780/1/6 783/2/6 787/4/6 784/3/6
f 784/2/1 788/4/1 789/3/1 785/1/1
f 785/2/3 789/4/3 790/3/3 786/1/3
f 787/1/4 786/2/4 790/4/4 791/3/4
f 784/1/6 787/2/6 791/4/6 788/3/6
f 788/2/1 792/4/1 793/3/1 789/1/1
f 789/2/3 793/4/3 794/3/3 790/1/3
f 791/1/4 790/2/4 794/4/4 795/3/4
f 788/1/6 791/2/6 795/4/6 792/3/6
f 792/2/1 796/4/1 797/3/1 793/1/1
f 793/2/3 797/4/3 798/3/3 794/1/3
f 795/1/4 794/2/4 798/4/4 799/3/4
f 792/1/6 795/2/6 799/4/6 796/3/6
f 796/2/1 800/4/1 801/3/1 797/1/1
f 797/2/3 801/4/3 802/3/3 798/1/3
f 799/1/4 798/2/4 802/4/4 803/3/4
f 796/1/6 799/2/6 803/4/6 800/3/6
f 800/2/1 804/4/1 805/3/1 801/1/1
f 801/2/3 805/4/3 806/3/3 802/1/3
f 803/1/4 802/2/4 806/4/4 807/3/4
f 800/1/6 803/2/6 807/4/6 804/3/6
f 804/2/1 808/4/1 809/3/1 805/1/1
f 805/2/3 809/4/3 810/3/3 806/1/3
f 807/1/4 806/2/4 810/4/4 811/3/4
f 804/1/6 807/2/6 811/4/6 808/3/6
f 808/2/1 812/4/1 813/3/1 809/1/1
f 809/2/3 813/4/3 814/3/3 810/1/3
f 811/1/4 810/2/4 814/4/4 815/3/4
f 808/1/6 811/2/6 815/4/6 812/3/6
f 812/2/1 816/4/1 817/3/1 813/1/1
f 813/2/3 817/4/3 818/3/3 814/1/3
f 815/1/4 814/2/4 818/4/4 819/3/4
f 812/1/6 815/2/6 819/4/6 816/3/6
f 816/2/1 820/4/1 821/3/1 817/1/1
f 817/2/3 821/4/3 822/3/3 818/1/3
f 819/1/4 818/2/4 822/4/4 823/3/4
f 816/1/6 819/2/6 823/4/6 820/3/6
f 820/2/1 824/4/1 825/3/1 821/1/1
f 821/2/3 825/4/3 826/3/3 822/1/3
f 823/1/4 822/2/4 826/4/4 827/3/4
f 820/1/6 823/2/6 827/4/6 824/3/6
f 824/2/1 828/4/1 829/3/1 825/1/1
f 825/2/3 829/4/3 830/3/3 826/1/3
f 827/1/4 826/2/4 830/4/4 831/3/4
f 824/1/6 827/2/6 831/4/6 828/3/6
f 828/2/1 832/4/1 833/3/1 829/1/1
f 829/2/3 833/4/3 834/3/3 830/1/3
f 831/1/4 830/2/4 834/4/4 835/3/4
f 828/1/6 831/2/6 835/4/6 832/3/6
f 832/2/1 836/4/1 837/3/1 833/1/1
f 833/2/3 837/4/3 838/3/3 834/1/3
f 835/1/4 834/2/4 838/4/4 839/3/4
f 832/1/6 835/2/6 839/4/6 836/3/6
f 836/2/1 840/4/1 841/3/1 837/1/1
f 837/2/3 841/4/3 842/3/3 838/1/3
f 839/1/4 838/2/4 842/4/4 843/3/4
f 836/1/6 839/2/6 843/4/6 840/3/6
f 840/2/1 844/4/1 845/3/1 841/1/1
f 841/2/3 845/4/3 846/3/3 842/1/3
f 843/1/4 842/2/4 846/4/4 847/3/4
f 840/1/6 843/2/6 847/4/6 844/3/6
f 844/2/1 848/4/1 849/3/1 845/1/1
f 845/2/3 849/4/3 850/3/3 846/1/3
f 847/1/4 846/2/4 850/4/4 851/3/4
f 844/1/6 847/2/6 851/4/6 848/3/6
f 848/2/1 852/4/1 853/3/1 849/1/1
f 849/2/3 853/4/3 854/3/3 850/1/3
f 851/1/4 850/2/4 854/4/4 855/3/4
f 848/1/6 851/2/6 855/4/6 852/3/6
f 852/2/1 856/4/1 857/3/1 853/1/1
f 853/2/3 857/4/3 858/3/3 854/1/3
f 855/1/4 854/2/4 858/4/4 859/3/4
f 852/1/6 855/2/6 859/4/6 856/3/6
f 856/2/1 860/4/1 861/3/1 857/1/1
f 857/2/3 861/4/3 862/3/3 858/1/3
f 859/1/4 858/2/4 862/4/4 863/3/4
f 856/1/6 859/2/6 863/4/6 860/3/6
f 860/2/1 864/4/1 865/3/1 861/1/1
f 861/2/3 865/4/3 866/3/3 862/1/3
f 863/1/4 862/2/4 866/4/4 867/3/4
f 860/1/6 863/2/6 867/4/6 864/3/6
f 864/2/1 868/4/1 869/3/1 865/1/1
f 865/2/3 869/4/3 870/3/3 866/1/3
f 867/1/4 866/2/4 870/4/4 871/3/4
f 864/1/6 867/2/6 871/4/6 868/3/6
f 868/2/1 872/4/1 873/3/1 869/1/1
f 869/2/3 873/4/3 874/3/3 870/1/3
f 871/1/4 870/2/4 874/4/4 875/3/4
f 868/1/6 871/2/6 875/4/6 872/3/6
f 872/2/1 876/4/1 877/3/1 873/1/1
f 873/2/3 877/4/3 878/3/3 874/1/3
f 875/1/4 874/2/4 878/4/4 879/3/4
f 872/1/6 875/2/6 879/4/6 876/3/6
f 876/2/1 880/4/1 881/3/1 877/1/1
f 877/2/3 881/4/3 882/3/3 878/1/3
f 879/1/4 878/2/4 882/4/4 883/3/4
f 876/1/6 879/2/6 883/4/6 880/3/6
f 880/2/1 884/4/1 885/3/1 881/1/1
f 881/2/3 885/4/3 886/3/3 882/1/3
f 883/1/4 882/2/4 886/4/4 887/3/4
f 880/1/6 883/2/6 887/4/6 884/3/6
f 884/2/1 888/4/1 889/3/1 885/1/1
f 885/2/3 889/4/3 890/3/3 886/1/3
f 887/1/4 886/2/4 890/4/4 891/3/4
f 884/1/6 887/2/6 891/4/6 888/3/6
f 888/2/1 892/4/1 893/3/1 889/1/1
f 889/2/3 893/4/3 894/3/3 890/1/3
f 891/1/4 890/2/4 894/4/4 895/3/4
f 888/1/6 891/2/6 895/4/6 892/3/6
f 892/2/1 896/4/1 897/3/1 893/1/1
f 893/2/3 897/4/3 898/3/3 894/1/3
f 895/1/4 894/2/4 898/4/4 899/3/4
f 892/1/6 895/2/6 899/4/6 896/3/6
f 896/2/1 900/4/1 901/3/1 897/1/1
f 897/2/3 901/4/3 902/3/3 898/1/3
f 899/1/4 898/2/4 902/4/4 903/3/4
f 896/1/6 899/2/6 903/4/6 900/3/6
f 900/2/1 904/4/1 905/3/1 901/1/1
f 901/2/3 905/4/3 906/3/3 902/1/3
f 903/1/4 902/2/4 906/4/4 907/3/4
f 900/1/6 903/2/6 907/4/6 904/3/6
f 904/2/1 908/4/1 909/3/1 905/1/1
f 905/2/3 909/4/3 910/3/3 906/1/3
f 907/1/4 906/2/4 910/4/4 911/3/4
f 904/1/6 907/2/6 911/4/6 908/3/6
f 908/2/1 912/4/1 913/3/1 909/1/1
f 909/2/3 913/4/3 914/3/3 910/1/3
f 911/1/4 910/2/4 914/4/4 915/3/4
f 908/1/6 911/2/6 915/4/6 912/3/6
f 912/2/1 916/4/1 917/3/1 913/1/1
f 913/2/3 917/4/3 918/3/3 914/1/3
f 915/1/4 914/2/4 918/4/4 919/3/4
f 912/1/6 915/2/6 919/4/6 916/3/6
f 916/2/1 920/4/1 921/3/1 917/1/1
f 917/2/3 921/4/3 922/3/3 918/1/3
f 919/1/4 918/2/4 922/4/4 923/3/4
f 916/1/6 919/2/6 923/4/6 920/3/6
f 920/2/1 924/4/1 925/3/1 921/1/1
f 921/2/3 925/4/3 926/3/3 922/1/3
f 923/1/4 922/2/4 926/4/4 927/3/4
f 920/1/6 923/2/6 927/4/6 924/3/6
f 924/2/1 928/4/1 929/3/1 925/1/1
f 925/2/3 929/4/3 930/3/3 926/1/3
f 927/1/4 926/2/4 930/4/4 931/3/4
f 924/1/6 927/2/6 931/4/6 928/3/6
f 928/2/1 932/4/1 933/3/1 929/1/1
f 929/2/3 933/4/3 934/3/3 930/1/3
f 931/1/4 930/2/4 934/4/4 935/3/4
f 928/1/6 931/2/6 935/4/6 932/3/6
f 932/2/1 936/4/1 937/3/1 933/1/1
f 933/2/3 937/4/3 938/3/3 934/1/3
f 935/1/4 934/2/4 938/4/4 939/3/4
f 932/1/6 935/2/6 939/4/6 936/3/6
f 936/2/1 940/4/1 941/3/1 937/1/1
f 937/2/3 941/4/3 942/3/3 938/1/3
f 939/1/4 938/2/4 942/4/4 943/3/4
f 936/1/6 939/2/6 943/4/6 940/3/6
f 940/2/1 944/4/1 945/3/1 941/1/1
f 941/2/3 945/4/3 946/3/3 942/1/3
f 943/1/4 942/2/4 946/4/4 947/3/4
f 940/1/6 943/2/6 947/4/6 944/3/6
f 944/2/1 948/4/1 949/3/1 945/1/1
f 945/2/3 949/4/3 950/3/3 946/1/3
f 947/1/4 946/2/4 950/4/4 951/3/4
f 944/1/6 947/2/6 951/4/6 948/3/6
f 948/2/1 952/4/1 953/3/1 949/1/1
f 949/2/3 953/4/3 954/3/3 950/1/3
f 951/1/4 950/2/4 954/4/4 955/3/4
f 948/1/6 951/2/6 955/4/6 952/3/6
f 952/2/1 956/4/1 957/3/1 953/1/1
f 953/2/3 957/4/3 958/3/3 954/1/3
f 955/1/4 954/2/4 958/4/4 959/3/4
f 952/1/6 955/2/6 959/4/6 956/3/6
f 956/2/1 960/4/1 961/3/1 957/1/1
f 957/2/3 961/4/3 962/3/3 958/1/3
f 959/1/4 958/2/4 962/4/4 963/3/4
f 956/1/6 959/2/6 963/4/6 960/3/6
f 960/2/1 964/4/1 965/3/1 961/1/1
f 961/2/3 965/4/3 966/3/3 962/1/3
f 963/1/4 962/2/4 966/4/4 967/3/4
f 960/1/6 963/2/6 967/4/6 964/3/6
f 964/2/1 968/4/1 969/3/1 965/1/1
f 965/2/3 969/4/3 970/3/3 966/1/3
f 967/1/4 966/2/4 970/4/4 971/3/4
f 964/1/6 967/2/6 971/4/6 968/3/6
f 968/2/1 972/4/1 973/3/1 969/1/1
f 969/2/3 973/4/3 974/3/3 970/1/3
f 971/1/4 970/2/4 974/4/4 975/3/4
f 968/1/6 971/2/6 975/4/6 972/3/6
f 972/2/1 976/4/1 977/3/1 973/1/1
f 973/2/3 977/4/3 978/3/3 974/1/3
f 975/1/4 974/2/4 978/4/4 979/3/4
f 972/1/6 975/2/6 979/4/6 976/3/6
f 976/2/1 980/4/1 981/3/1 977/1/1
f 977/2/3 981/4/3 982/3/3 978/1/3
f 979/1/4 978/2/4 982/4/4 983/3/4
f 976/1/6 979/2/6 983/4/6 980/3/6
f 980/2/1 984/4/1 985/3/1 981/1/1
f 981/2/3 985/4/3 986/3/3 982/1/3
f 983/1/4 982/2/4 986/4/4 987/3/4
f 980/1/6 983/2/6 987/4/6 984/3/6
f 984/2/1 988/4/1 989/3/1 985/1/1
f 985/2/3 989/4/3 990/3/3 986/1/3
f 987/1/4 986/2/4 990/4/4 991/3/4
f 984/1/6 987/2/6 991/4/6 988/3/6
f 988/2/1 992/4/1 993/3/1 989/1/1
f 989/2/3 993/4/3 994/3/3 990/1/3
f 991/1/4 990/2/4 994/4/4 995/3/4
f 988/1/6 991/2/6 995/4/6 992/3/6
f 992/2/1 996/4/1 997/3/1 993/1/1
f 993/2/3 997/4/3 998/3/3 994/1/3
f 995/1/4 994/2/4 998/4/4 999/3/4
f 992/1/6 995/2/6 999/4/6 996/3/6
f 996/2/1 1000/4/1 1001/3/1 997/1/1
f 997/2/3 1001/4/3 1002/3/3 998/1/3
f 999/1/4 998/2/4 1002/4/4 1003/3/4
f 996/1/6 999/2/6 1003/4/6 1000/3/6
f 1000/2/1 1004/4/1 1005/3/1 1001/1/1
f 1001/2/3 1005/4/3 1006/3/3 1002/1/3
f 1003/1/4 1002/2/4 1006/4/4 1007/3/4
f 1000/1/6 1003/2/6 1007/4/6 1004/3/6
f 1004/2/1 1008/4/1 1009/3/1 1005/1/1
f 1005/2/3 1009/4/3 1010/3/3 1006/1/3
f 1007/1/4 1006/2/4 1010/4/4 1011/3/4
f 1004/1/6 1007/2/6 1011/4/6 1008/3/6
f 1008/2/1 517/4/1 516/3/1 1009/1/1
f 1009/2/3 516/4/3 771/3/3 1010/1/3
f 1011/1/4 1010/2/4 771/4/4 1012/3/4
f 1008/1/6 1011/2/6 1012/4/6 517/3/6
